<mxfile host="app.diagrams.net" modified="2020-11-23T07:09:30.647Z" agent="5.0 (Macintosh; Intel Mac OS X 10_15_7) AppleWebKit/537.36 (KHTML, like Gecko) Chrome/87.0.4280.67 Safari/537.36" etag="uAhTVFYVaxNePHT9gtUU" version="13.10.1" type="github">
  <diagram id="Oal2WcGl39Q6uZJulXUK" name="Page-1">
    <mxGraphModel dx="909" dy="591" grid="1" gridSize="10" guides="1" tooltips="1" connect="1" arrows="1" fold="1" page="1" pageScale="1" pageWidth="827" pageHeight="1169" math="0" shadow="0">
      <root>
        <mxCell id="0" />
        <mxCell id="1" parent="0" />
        <mxCell id="ai-eD-c6_S3de1b365am-26" style="edgeStyle=orthogonalEdgeStyle;rounded=0;orthogonalLoop=1;jettySize=auto;html=1;exitX=1;exitY=0.5;exitDx=0;exitDy=0;exitPerimeter=0;entryX=0;entryY=0.5;entryDx=0;entryDy=0;" edge="1" parent="1" source="ai-eD-c6_S3de1b365am-5" target="ai-eD-c6_S3de1b365am-19">
          <mxGeometry relative="1" as="geometry" />
        </mxCell>
        <mxCell id="ai-eD-c6_S3de1b365am-5" value="Train" style="shape=cylinder3;whiteSpace=wrap;html=1;boundedLbl=1;backgroundOutline=1;size=15;fillColor=#dae8fc;strokeColor=#6c8ebf;" vertex="1" parent="1">
          <mxGeometry x="70" y="180" width="60" height="80" as="geometry" />
        </mxCell>
        <mxCell id="ai-eD-c6_S3de1b365am-28" style="edgeStyle=orthogonalEdgeStyle;rounded=0;orthogonalLoop=1;jettySize=auto;html=1;exitX=0.5;exitY=0;exitDx=0;exitDy=0;exitPerimeter=0;entryX=0;entryY=0.5;entryDx=0;entryDy=0;" edge="1" parent="1" source="ai-eD-c6_S3de1b365am-8" target="ai-eD-c6_S3de1b365am-19">
          <mxGeometry relative="1" as="geometry">
            <Array as="points">
              <mxPoint x="680" y="160" />
              <mxPoint x="170" y="160" />
              <mxPoint x="170" y="220" />
            </Array>
          </mxGeometry>
        </mxCell>
        <mxCell id="ai-eD-c6_S3de1b365am-29" value="Union" style="edgeLabel;html=1;align=center;verticalAlign=middle;resizable=0;points=[];" vertex="1" connectable="0" parent="ai-eD-c6_S3de1b365am-28">
          <mxGeometry x="0.7884" y="1" relative="1" as="geometry">
            <mxPoint as="offset" />
          </mxGeometry>
        </mxCell>
        <mxCell id="ai-eD-c6_S3de1b365am-8" value="NewTrain" style="shape=cylinder3;whiteSpace=wrap;html=1;boundedLbl=1;backgroundOutline=1;size=15;fillColor=#dae8fc;strokeColor=#6c8ebf;" vertex="1" parent="1">
          <mxGeometry x="650" y="180" width="60" height="80" as="geometry" />
        </mxCell>
        <mxCell id="ai-eD-c6_S3de1b365am-22" value="" style="edgeStyle=orthogonalEdgeStyle;rounded=0;orthogonalLoop=1;jettySize=auto;html=1;" edge="1" parent="1" source="ai-eD-c6_S3de1b365am-19" target="ai-eD-c6_S3de1b365am-21">
          <mxGeometry relative="1" as="geometry" />
        </mxCell>
        <mxCell id="ai-eD-c6_S3de1b365am-19" value="TrainModel" style="whiteSpace=wrap;html=1;fillColor=#ffe6cc;strokeColor=#d79b00;" vertex="1" parent="1">
          <mxGeometry x="270" y="190" width="120" height="60" as="geometry" />
        </mxCell>
        <mxCell id="ai-eD-c6_S3de1b365am-23" value="&lt;b&gt;Label&lt;/b&gt;" style="edgeStyle=orthogonalEdgeStyle;rounded=0;orthogonalLoop=1;jettySize=auto;html=1;" edge="1" parent="1" source="ai-eD-c6_S3de1b365am-21" target="ai-eD-c6_S3de1b365am-8">
          <mxGeometry relative="1" as="geometry" />
        </mxCell>
        <mxCell id="ai-eD-c6_S3de1b365am-21" value="Test" style="shape=cylinder;whiteSpace=wrap;html=1;boundedLbl=1;backgroundOutline=1;fillColor=#dae8fc;strokeColor=#6c8ebf;" vertex="1" parent="1">
          <mxGeometry x="450" y="180" width="60" height="80" as="geometry" />
        </mxCell>
      </root>
    </mxGraphModel>
  </diagram>
</mxfile>
